<svg xmlns="http://www.w3.org/2000/svg" xmlns:xlink="http://www.w3.org/1999/xlink" width="397.375" height="25.14" viewBox="0 0 397.375 25.14"><defs><clipPath id="a"><path d="M0-.86H134V-26H0Z" fill="#0c479d"/></clipPath><clipPath id="b"><rect width="134" height="26" transform="translate(0 -26)" fill="#0c479d"/></clipPath><clipPath id="c"><path d="M68.378-26h6.47L77.9-12.736h.137L81.171-26h6.286V-7.827H83.607V-21.549h-.175L80.042-7.827H75.717L72.4-21.549h-.175V-7.827H68.378ZM0-26H12.034v3.386H4.093v3.767h7.583v3.287H4.093v4.341h7.941v3.391H0ZM17.532-7.827l4.123-5.27,2.572,2.588L18.342-3.181h4.6l3.768-4.856L33.806-.86h5.557L29.172-11.052,37.2-21.138H32.592L26.66-13.564l-2.568-2.565,6.6-8.266H26.1l-4.5,5.767-2.448-2.51H13.662l5.521,5.543L12.944-7.827Zm92.551,0,.041-1.024a6.023,6.023,0,0,0,4.069,1.329,6.817,6.817,0,0,0,6.505-6.958,6.686,6.686,0,0,0-6.46-6.966,5.946,5.946,0,0,0-4.113,1.364V-26h-3.8V-7.827Zm6.6-6.663a3.286,3.286,0,0,1-3.342,3.335,3.279,3.279,0,0,1-3.355-3.325,3.284,3.284,0,0,1,3.359-3.333A3.266,3.266,0,0,1,116.681-14.49ZM130.033-26H134V-7.827h-3.967Zm-7.025,3.386h3.966V-26h-3.966Zm0,1.476h3.966v13.31h-3.966Zm-87,6.656a6.988,6.988,0,0,0,7.141,6.958,6.987,6.987,0,0,0,7.141-6.958,6.993,6.993,0,0,0-7.141-6.965A6.994,6.994,0,0,0,36.012-14.481Zm3.862,0a3.274,3.274,0,0,1,3.3-3.352,3.274,3.274,0,0,1,3.3,3.352,3.275,3.275,0,0,1-3.3,3.352A3.274,3.274,0,0,1,39.874-14.481Zm49.874,0a6.988,6.988,0,0,0,7.141,6.958,6.987,6.987,0,0,0,7.141-6.958,6.993,6.993,0,0,0-7.141-6.965A6.994,6.994,0,0,0,89.748-14.483Zm3.862,0a3.273,3.273,0,0,1,3.3-3.351,3.274,3.274,0,0,1,3.3,3.351,3.275,3.275,0,0,1-3.3,3.352A3.274,3.274,0,0,1,93.61-14.483ZM52.479-21.138h3.705v1.259a5.785,5.785,0,0,1,4.054-1.569,4.944,4.944,0,0,1,5.008,5.269v8.351H61.332v-7.317c0-1.794-.878-2.858-2.47-2.858-1.544,0-2.471,1-2.471,2.858v7.317H52.479Z" fill="#0c479d"/></clipPath><clipPath id="d"><path d="M0,0H134V-26H0Z" fill="#0c479d"/></clipPath><clipPath id="e"><path d="M151-9.87c0,4.174-5.217,7.609-11.652,7.609S127.7-5.652,127.7-9.826s5.217-7.609,11.652-7.609S151-14.087,151-9.87Zm-25.7,0c0,5.391,6.3,9.783,14.043,9.783s14.044-4.391,14.044-9.783-6.3-9.783-14.044-9.783S125.3-15.261,125.3-9.87Z" transform="translate(-125.304 19.652)" fill="#0c479d"/></clipPath><clipPath id="f"><path d="M143.565-10.739a4.077,4.077,0,0,0-1.217-.435,1.426,1.426,0,0,0-.739.043.287.287,0,0,0-.174.217.269.269,0,0,0,.044.3c.261.3.7.3,1.043.478a3.1,3.1,0,0,1,.652.348,1.352,1.352,0,0,1,.522.7,1.674,1.674,0,0,1-.261,1.609,2.668,2.668,0,0,1-2.956.7,5,5,0,0,1-.739-.261V-8.522a3.174,3.174,0,0,0,1.652.478.7.7,0,0,0,.391-.13.474.474,0,0,0,.087-.478.583.583,0,0,0-.3-.261c-.7-.3-1.609-.478-1.826-1.348a2.174,2.174,0,0,1-.043-.913,1.348,1.348,0,0,1,.261-.565,1.9,1.9,0,0,1,.609-.565,2.049,2.049,0,0,1,.652-.261,3.565,3.565,0,0,1,2.3.435Zm-4.609-1.435a3.565,3.565,0,0,0-2.3-.435,2.048,2.048,0,0,0-.652.261,2.483,2.483,0,0,0-.609.565,1.348,1.348,0,0,0-.261.565,2.176,2.176,0,0,0,.044.913c.217.87,1.13,1.043,1.826,1.348a.461.461,0,0,1,.3.261.4.4,0,0,1-.087.478.7.7,0,0,1-.391.13,2.73,2.73,0,0,1-1.652-.478v1.478a2.139,2.139,0,0,0,.739.261,2.686,2.686,0,0,0,2.957-.7,1.791,1.791,0,0,0,.261-1.609,1.413,1.413,0,0,0-.522-.7,3.479,3.479,0,0,0-.7-.348,2.3,2.3,0,0,1-1.043-.478.739.739,0,0,1-.044-.3.435.435,0,0,1,.174-.217,1.4,1.4,0,0,1,.739-.043,4.077,4.077,0,0,1,1.217.435Zm-4.3-1.739a3.552,3.552,0,0,0-2.739-.348,2.148,2.148,0,0,0-1.391,1.13,1.95,1.95,0,0,0-.174.87,1.9,1.9,0,0,0,1.044,1.565.778.778,0,0,1-.3.217,2.058,2.058,0,0,0-.435.435,1.739,1.739,0,0,0-.391.913,2.173,2.173,0,0,0,.087.913,2.265,2.265,0,0,0,1.739,1.435,3.252,3.252,0,0,0,1.13.043,4.618,4.618,0,0,0,.826-.174,1.844,1.844,0,0,0,.609-.261l-.217-1.391a3.234,3.234,0,0,1-1.7.13.787.787,0,0,1-.391-.87.761.761,0,0,1,.522-.565A4.026,4.026,0,0,1,134.3-10v-1.3a3.552,3.552,0,0,1-1.174-.043.87.87,0,0,1-.348-.174,1.9,1.9,0,0,1-.261-.3.591.591,0,0,1,0-.652c.391-.739,1.391-.435,2.044-.174Zm9.565,4.3c.043,2.261,1.174,3,2.522,3s2.435-.87,2.391-3.087-1.174-3-2.522-3-2.435.87-2.391,3.087Zm3.261-.043c0,1-.348,1.565-.826,1.565s-.87-.522-.87-1.565.3-1.565.826-1.565.87.478.87,1.565Z" transform="translate(-130.246 14.392)" fill="#0c479d"/></clipPath><clipPath id="g"><path d="M34.9-14.865h2.441v.776a4.117,4.117,0,0,1,2.705-1.053,3.252,3.252,0,0,1,3.323,3.176h0v5.8H40.756v-4.722c0-1.176-.588-1.847-1.623-1.847s-1.623.676-1.623,1.847V-6.15h-2.57l-.071-8.716H34.9ZM26.5-10.5a2.164,2.164,0,0,1,.626-1.534,2.164,2.164,0,0,1,1.527-.642,2.129,2.129,0,0,1,2.164,2.088v.094a2.17,2.17,0,0,1-2.164,2.01,2.17,2.17,0,0,1-2.164-2.01Zm-2.57,0A4.758,4.758,0,0,0,26.189-6.22a4.758,4.758,0,0,0,4.84.087,4.758,4.758,0,0,0,2.411-4.2,4.7,4.7,0,0,0-4.652-4.734h-.124a4.6,4.6,0,0,0-4.734,4.423.229.229,0,0,1,0,.106ZM11.7-6.144l2.776-3.435,1.694,1.717L12.238-3.127h3.052L17.8-6.291l4.734,4.7h3.723L19.5-8.255l5.346-6.628H21.76L17.826-9.972l-1.694-1.653,4.4-5.411H17.484l-2.976,3.77-1.588-1.623H9.269l3.652,3.634L8.8-6.161h2.9ZM0-18H7.981v2.176H2.688v2.447H7.763v2.141H2.688V-8.4H7.981v2.311H0Zm44.508,4.264H44.3v-.941h-.341v-.194h.947v.194h-.341l-.071.917h0Zm1.558,0h-.194v-.941h0l-.206.917h-.206l-.206-.917h0v.917h-.206v-1.106h.341l.206.853h0l.206-.853h.341l-.071,1.123h0Z" transform="translate(0 18)" fill="#0c479d"/></clipPath><clipPath id="h"><path d="M107.175-16.766h.347v1.042h.234v-1.042h.347V-17h-.929ZM109.146-17l-.234,1.042h0L108.678-17h-.347v1.276h.234v-1.042h0l.234,1.042h.234l.234-1.042h0v1.042h.234V-17ZM68.834-8.542h0L66.289-16.88H62V-3.331h2.779v-9.614h0l2.672,9.614H70l2.672-9.614h0v9.614h2.779V-16.88H71.28ZM99.3-14.221h2.779V-16.88H99.3Zm0,10.89h2.779v-9.961H99.3Zm4.289,0h2.779V-16.88h-2.779ZM93.272-13.539A3.868,3.868,0,0,0,90.6-12.5V-16.88H87.854V-3.331h2.779V-4.26A3.34,3.34,0,0,0,93.306-3.1a5.048,5.048,0,0,0,4.864-5.211A5.087,5.087,0,0,0,93.272-13.539ZM93.039-5.9a2.438,2.438,0,0,1-2.553-2.317A2.438,2.438,0,0,1,92.8-10.768a2.438,2.438,0,0,1,2.556,2.312v.127a2.352,2.352,0,0,1-2.245,2.452h-.067ZM81.575-11.669a3.267,3.267,0,0,0-2.3.976,3.267,3.267,0,0,0-.938,2.318h0v.047A3.3,3.3,0,0,0,81.707-5.11a3.3,3.3,0,0,0,3.226-3.366,3.3,3.3,0,0,0-3.359-3.233Zm0,5.558a2.278,2.278,0,0,1-2.2-2.2,2.131,2.131,0,0,1,.577-1.527,2.131,2.131,0,0,1,1.488-.671h.134a2.278,2.278,0,0,1,2.2,2.2A2.131,2.131,0,0,1,83.2-6.782a2.131,2.131,0,0,1-1.488.671Zm0-7.529a5.2,5.2,0,0,0-3.646,1.593,5.2,5.2,0,0,0-1.451,3.7h0V-8.3a5.271,5.271,0,0,0,5.1,5.345,5.2,5.2,0,0,0,3.646-1.593,5.2,5.2,0,0,0,1.451-3.7h0V-8.3a5.191,5.191,0,0,0-5.031-5.345Zm0,9.353A4.008,4.008,0,0,1,77.64-8.342,3.935,3.935,0,0,1,81.448-12.4h.127a4.008,4.008,0,0,1,3.935,4.055A3.935,3.935,0,0,1,81.728-4.26h-.154Z" transform="translate(-62 17)" fill="#0c479d"/></clipPath><clipPath id="i"><path d="M180.487-10.129l7.172-9.563h-3.905L178.5-12.757l-1.761-2.312H172.91l3.668,4.843L169.405-.742h3.826l5.283-6.93,1.761,2.312H184.1ZM178.5-8.553,171.325-.627l5.975-9.484-2.47-4.843,3.668,3.188,7.172-7.89-5.975,9.484,2.391,4.782Z" transform="translate(-169.405 19.692)" fill="#0c479d"/></clipPath><clipPath id="j"><path d="M203.677-10.129a5,5,0,0,0-5.008-4.975,5,5,0,0,0-4.986,5,5,5,0,0,0,4.986,5,5,5,0,0,0,5.008-4.975ZM198.658-7.9a2.232,2.232,0,0,1-2.232-2.232,2.232,2.232,0,0,1,2.232-2.232,2.232,2.232,0,0,1,2.232,2.232h0A2.281,2.281,0,0,1,198.658-7.9Z" transform="translate(-193.682 15.104)" fill="#0c479d"/></clipPath><clipPath id="k"><path d="M178.735-.8a1.18,1.18,0,0,1-.559-.079.467.467,0,0,1-.158-.4v-1.11h.718c.4,0,.48.159.48.4h.158V-3.036h-.158c-.079.317-.079.4-.48.4h-.718V-3.833c0-.159,0-.159.158-.159h.48c.559,0,.718.159.8.638h.159v-.8h-2.549v.159c.48,0,.48.079.48.317v2.549c0,.317,0,.317-.48.317v.181H179.7l.079-.881h-.158C179.611-.887,179.373-.8,178.735-.8Z" transform="translate(-177.062 4.15)" fill="#0c479d"/></clipPath><clipPath id="l"><path d="M183.833-3.912q.48,0,.48.238v2.391h0c-.639-.955-1.277-1.832-1.99-2.787h-.956v.159c.48,0,.48.079.48.317V-.953c0,.238-.159.238-.4.238v.159h1.2V-.715q-.48,0-.48-.238V-3.595h0c.718,1.035,1.435,1.99,2.153,3.029h.317V-3.674c0-.238.158-.238.4-.238V-4.07h-1.193Z" transform="translate(-181.368 4.07)" fill="#0c479d"/></clipPath><clipPath id="m"><path d="M188.139-.8a1.18,1.18,0,0,1-.559-.079.467.467,0,0,1-.158-.4v-1.11h.718c.4,0,.48.159.48.4h.158V-3.036h-.158c-.079.317-.079.4-.48.4h-.718V-3.833c0-.159,0-.159.158-.159h.48c.559,0,.718.159.8.638h.158v-.8h-2.549v.159c.48,0,.48.079.48.317v2.549c0,.317,0,.317-.48.317v.181h2.642l.079-.881h-.159C189.015-.887,188.778-.8,188.139-.8Z" transform="translate(-186.466 4.15)" fill="#0c479d"/></clipPath><clipPath id="n"><path d="M193.317-1.442c-.079-.48-.159-.8-.718-.881h0a.881.881,0,0,0,.8-.881c0-.48-.317-.881-1.193-.881h-1.435v.159c.48,0,.48.079.48.317v2.54c0,.317,0,.317-.48.317v.159H192.2V-.751c-.4,0-.48-.079-.48-.317V-2.239h.317c.317,0,.559.079.638.4a3.521,3.521,0,0,0,.158.8c.079.317.238.4.559.4h.4V-.8C193.475-.8,193.4-1.068,193.317-1.442ZM192.2-2.389h-.4V-3.595c0-.238,0-.238.4-.238s.8.159.8.718a.731.731,0,0,1-.731.731H192.2Z" transform="translate(-190.768 4.084)" fill="#0c479d"/></clipPath><clipPath id="o"><path d="M197.222-2c.48,0,.559.079.559.317v.638c0,.159-.079.238-.158.238a.881.881,0,0,1-.48.079c-1.114,0-1.356-1.035-1.356-1.673,0-.8.317-1.594,1.277-1.594a.841.841,0,0,1,.947.718V-3.2h.159v-.793a2.109,2.109,0,0,0-1.114-.238,1.708,1.708,0,0,0-1.514.638,2.03,2.03,0,0,0-.4,1.277,1.647,1.647,0,0,0,.638,1.435,2.338,2.338,0,0,0,1.277.317A2.545,2.545,0,0,0,198.173-.8V-1.68c0-.238,0-.238.317-.317v-.159h-1.356V-2Z" transform="translate(-195.139 4.238)" fill="#0c479d"/></clipPath><clipPath id="p"><path d="M202.021-3.912h.238c.079,0,.079.079.079.159-.159.317-.48.955-.718,1.515h0c-.317-.559-.559-1.035-.8-1.515-.079-.079,0-.159.079-.159h.317V-4.07h-1.277v.159a.568.568,0,0,1,.48.238,9.9,9.9,0,0,1,.8,1.594c.079.079.079.159.079.317v.718c0,.238,0,.317-.559.317V-.57h1.594V-.729c-.48,0-.559-.079-.559-.317v-.8a.48.48,0,0,1,.079-.317c.238-.48.638-1.193.8-1.435a.533.533,0,0,1,.559-.317V-4.07H202.1v.159Z" transform="translate(-199.943 4.07)" fill="#0c479d"/></clipPath><clipPath id="q"><path d="M193.555-14.99H185.11l-1.99,2.871h3.9v6.772h3.108v-6.772h3.425Z" transform="translate(-183.12 14.99)" fill="#0c479d"/></clipPath></defs><g transform="translate(-117 -1208.64)"><g transform="translate(117 1234.64)"><g clip-path="url(#a)"><g style="isolation:isolate"><g clip-path="url(#b)"><g clip-path="url(#c)"><g clip-path="url(#d)"><path d="M-1-27H135V.14H-1Z" fill="#0c479d"/></g></g></g></g></g></g><g transform="translate(308.323 1231.332)"><g transform="translate(4)"><g transform="translate(126.999 -19.652)" clip-path="url(#e)"><path d="M124.3-20.652h30.087V.913H124.3Z" transform="translate(-125.304 19.652)" fill="#0c479d"/></g><g transform="translate(131.92 -14.392)" clip-path="url(#f)"><path d="M129.225-15.519h20.949V-5.478H129.225Z" transform="translate(-130.246 14.392)" fill="#0c479d"/></g></g><g transform="translate(0 -18)" clip-path="url(#g)"><path d="M-1-19H47.143V-.586H-1Z" transform="translate(0 18)" fill="#0c479d"/></g><g transform="translate(62.943 -17)" clip-path="url(#h)"><path d="M61-18h49.5V-1.95H61Z" transform="translate(-62 17)" fill="#0c479d"/></g><g transform="translate(171.78 -19.692)" clip-path="url(#i)"><path d="M168.405-20.692h20.254V.373H168.405Z" transform="translate(-169.405 19.692)" fill="#0c479d"/></g><g transform="translate(196.058 -15.104)" clip-path="url(#j)"><path d="M192.682-16.11h11.994V-4.1H192.682Z" transform="translate(-193.682 15.104)" fill="#0c479d"/></g><g transform="translate(179.437 -4.15)" clip-path="url(#k)"><path d="M176.062-5.15h4.721V.373h-4.721Z" transform="translate(-177.062 4.15)" fill="#0c479d"/></g><g transform="translate(183.743 -4.07)" clip-path="url(#l)"><path d="M180.368-5.07h5.668V.443h-5.668Z" transform="translate(-181.368 4.07)" fill="#0c479d"/></g><g transform="translate(188.841 -4.15)" clip-path="url(#m)"><path d="M185.466-5.15h4.721V.373h-4.721Z" transform="translate(-186.466 4.15)" fill="#0c479d"/></g><g transform="translate(193.143 -4.083)" clip-path="url(#n)"><path d="M189.768-5.084h5.025V.408h-5.025Z" transform="translate(-190.768 4.084)" fill="#0c479d"/></g><g transform="translate(197.514 -4.238)" clip-path="url(#o)"><path d="M194.1-5.289h5.39V.457H194.1Z" transform="translate(-195.139 4.238)" fill="#0c479d"/></g><g transform="translate(202.319 -4.07)" clip-path="url(#p)"><path d="M198.943-5.07h5.267V.43h-5.267Z" transform="translate(-199.943 4.07)" fill="#0c479d"/></g><g transform="translate(185.495 -14.99)" clip-path="url(#q)"><path d="M182.12-15.99h12.435V-4.347H182.12Z" transform="translate(-183.12 14.99)" fill="#0c479d"/></g></g></g></svg>